<svg xmlns="http://www.w3.org/2000/svg" version="1.1" xmlns:xlink="http://www.w3.org/1999/xlink" xmlns:svgjs="http://svgjs.dev/svgjs" width="2000" height="484" viewBox="0 0 2000 484"><g transform="matrix(1,0,0,1,-1.2121213905815011,-0.9941156580611903)"><svg viewBox="0 0 396 96" data-background-color="#000000" preserveAspectRatio="xMidYMid meet" height="484" width="2000" xmlns="http://www.w3.org/2000/svg" xmlns:xlink="http://www.w3.org/1999/xlink"><g id="tight-bounds" transform="matrix(1,0,0,1,0.24000003533512881,0.1971799652352786)"><svg viewBox="0 0 395.52 95.60564006952943" height="95.60564006952943" width="395.52"><g><svg viewBox="0 0 537.3854262116677 129.89754661459185" height="95.60564006952943" width="395.52"><g transform="matrix(1,0,0,1,0,17.952555284650543)"><svg viewBox="0 0 395.5199999999999 93.99243604529076" height="93.99243604529076" width="395.5199999999999"><g id="textblocktransform"><svg viewBox="0 0 395.5199999999999 93.99243604529076" height="93.99243604529076" width="395.5199999999999" id="textblock"><g><svg viewBox="0 0 395.5199999999999 50.69502870717854" height="50.69502870717854" width="395.5199999999999"><g transform="matrix(1,0,0,1,0,0)"><svg width="395.5199999999999" viewBox="2.0181819052480003 -33.9 351.451818094752 45.05" height="50.69502870717854" data-palette-color="#ffffff"><path d="M8-32.1L8-32.1Q11.45-32.1 15.6-32.25 19.75-32.4 23.7-32.4L23.7-32.4Q23.95-30.55 24.35-29 24.75-27.45 25.1-25.8L25.1-25.8Q24.85-25.55 24.25-25.55L24.25-25.55Q23.6-25.55 23.55-25.9L23.55-25.9Q22.75-28.85 21.3-29.65 19.85-30.45 17.9-30.45L17.9-30.45 13.7-30.45Q13.4-30.45 12.6-30.43 11.8-30.4 11.1-30.3 10.4-30.2 10.3-29.95L10.3-29.95Q10.15-29.45 10.13-28.65 10.1-27.85 10.1-27L10.1-27Q10.1-26.65 10.1-26.45L10.1-26.45 10.1-17.35Q10.1-17.15 10.75-17.1 11.4-17.05 12.2-17.05L12.2-17.05 14.75-17.05Q16.5-17.05 17.48-17.15 18.45-17.25 18.9-17.6 19.35-17.95 19.6-18.65 19.85-19.35 20.15-20.55L20.15-20.55Q20.2-20.9 20.85-20.9L20.85-20.9Q21.45-20.9 21.7-20.65L21.7-20.65 21.7-11.45Q21.5-11.25 20.9-11.25L20.9-11.25Q20.3-11.25 20.15-11.6L20.15-11.6Q19.8-13 19.58-13.63 19.35-14.25 19.18-14.48 19-14.7 18.75-14.85L18.75-14.85Q18.5-15.05 17.6-15.13 16.7-15.2 15.63-15.23 14.55-15.25 13.6-15.25L13.6-15.25Q12.95-15.25 12.13-15.23 11.3-15.2 10.7-15.13 10.1-15.05 10.1-14.8L10.1-14.8 10.1-5.65Q10.1-5.5 10.1-5.35 10.1-5.2 10.1-5.05L10.1-5.05Q10.1-4.1 10.13-3.33 10.15-2.55 10.3-2.05L10.3-2.05Q10.4-1.8 11.23-1.6 12.05-1.4 12.98-1.33 13.9-1.25 14.2-1.25L14.2-1.25Q14.35-1.05 14.38-0.55 14.4-0.05 14.2 0.15L14.2 0.15Q12.7 0.05 11.08-0.03 9.45-0.1 8-0.1L8-0.1Q6.3-0.1 4.98 0.03 3.65 0.15 2.2 0.15L2.2 0.15Q2-0.05 2.02-0.55 2.05-1.05 2.2-1.25L2.2-1.25Q2.5-1.25 3.3-1.33 4.1-1.4 4.83-1.6 5.55-1.8 5.6-2.05L5.6-2.05Q5.8-2.65 5.83-3.6 5.85-4.55 5.85-5.65L5.85-5.65 5.85-26.5Q5.85-27.6 5.83-28.58 5.8-29.55 5.6-30.15L5.6-30.15Q5.55-30.45 4.83-30.6 4.1-30.75 3.3-30.83 2.5-30.9 2.2-30.9L2.2-30.9Q2.05-31.1 2.02-31.6 2-32.1 2.2-32.3L2.2-32.3Q3.7-32.25 5.15-32.18 6.6-32.1 8-32.1ZM30.35-12.1L30.35-12.1Q30.3-9 31.4-6.9 32.5-4.8 34.35-3.78 36.2-2.75 38.35-2.75L38.35-2.75Q39.7-2.75 40.8-3.23 41.9-3.7 42.65-4.33 43.4-4.95 43.7-5.3L43.7-5.3Q43.75-5.3 43.92-5.13 44.1-4.95 44.1-4.65L44.1-4.65Q44.1-4.25 43.8-3.75L43.8-3.75Q43.35-3.05 42.4-2.08 41.45-1.1 40-0.35 38.55 0.4 36.65 0.4L36.65 0.4Q33.8 0.4 31.6-0.95 29.4-2.3 28.15-4.6 26.9-6.9 26.9-9.75L26.9-9.75Q26.9-12.2 27.77-14.33 28.65-16.45 30.07-18.03 31.5-19.6 33.2-20.5 34.9-21.4 36.5-21.4L36.5-21.4Q38.7-21.4 40.12-20.65 41.55-19.9 42.37-18.8 43.2-17.7 43.52-16.6 43.85-15.5 43.85-14.75L43.85-14.75Q43.85-13.7 43.6-13.1 43.35-12.5 42.65-12.45L42.65-12.45Q42.2-12.4 40.87-12.38 39.55-12.35 37.85-12.3 36.15-12.25 34.5-12.2 32.85-12.15 31.7-12.13 30.55-12.1 30.35-12.1ZM30.6-13.9L30.6-13.9 38.55-13.9Q39-13.9 39.32-14.15 39.65-14.4 39.7-15.05L39.7-15.05Q39.75-15.65 39.35-16.75 38.95-17.85 38.07-18.75 37.2-19.65 35.7-19.65L35.7-19.65Q34.15-19.65 33.15-18.78 32.15-17.9 31.57-16.78 31-15.65 30.77-14.78 30.55-13.9 30.6-13.9ZM60.7-21.35L60.7-21.35Q61.65-21.35 62.5-20.93 63.35-20.5 63.7-19.9L63.7-19.9Q63.8-19.7 63.85-19.35 63.9-19 63.9-18.6L63.9-18.6Q63.9-17.25 63.27-16.65 62.65-16.05 62.25-16.05L62.25-16.05Q61.75-16.05 61.3-16.4 60.85-16.75 60.45-17L60.45-17Q60.1-17.25 59.72-17.43 59.35-17.6 58.65-17.6L58.65-17.6Q57.6-17.6 56.72-16.73 55.85-15.85 55.3-14.8 54.75-13.75 54.75-13.2L54.75-13.2 54.75-5.65Q54.75-4.55 54.77-3.6 54.8-2.65 55-2.05L55-2.05Q55.1-1.8 56-1.6 56.9-1.4 57.9-1.33 58.9-1.25 59.2-1.25L59.2-1.25Q59.35-1.05 59.37-0.55 59.4-0.05 59.2 0.15L59.2 0.15Q57.7 0.05 56.15-0.03 54.6-0.1 53.15-0.1L53.15-0.1Q51.75-0.1 50.45-0.03 49.15 0.05 47.65 0.15L47.65 0.15Q47.45-0.05 47.47-0.55 47.5-1.05 47.65-1.25L47.65-1.25Q47.95-1.25 48.67-1.33 49.4-1.4 50.05-1.6 50.7-1.8 50.75-2.05L50.75-2.05Q50.95-2.65 50.97-3.6 51-4.55 51-5.65L51-5.65 51-14.75Q51-15.25 50.97-16.05 50.95-16.85 50.75-17.3L50.75-17.3Q50.6-17.75 49.9-17.93 49.2-18.1 48.5-18.13 47.8-18.15 47.6-18.15L47.6-18.15Q47.55-18.25 47.5-18.75 47.45-19.25 47.6-19.45L47.6-19.45Q49.5-19.7 51.3-20.2 53.1-20.7 54.55-21.5L54.55-21.5Q54.75-21.5 54.92-21.2 55.1-20.9 55.1-20.7L55.1-20.7Q55.1-20.55 55-19.55 54.9-18.55 54.82-17.53 54.75-16.5 54.75-16.2L54.75-16.2Q54.75-16.05 54.82-16.05 54.9-16.05 54.95-16.1L54.95-16.1Q55.45-17.15 56.37-18.38 57.3-19.6 58.45-20.48 59.6-21.35 60.7-21.35ZM80.34-21.4L80.34-21.4Q82.99-21.4 84.34-20.3 85.69-19.2 86.17-16.9 86.64-14.6 86.64-11.05L86.64-11.05 86.64-5.65Q86.64-4.55 86.67-3.6 86.69-2.65 86.89-2.05L86.89-2.05Q86.99-1.8 87.62-1.6 88.24-1.4 88.94-1.33 89.64-1.25 89.94-1.25L89.94-1.25Q90.09-1.05 90.12-0.55 90.14-0.05 89.94 0.15L89.94 0.15Q88.44 0.05 87.32-0.03 86.19-0.1 84.74-0.1L84.74-0.1Q83.34-0.1 82.19-0.03 81.04 0.05 79.54 0.15L79.54 0.15Q79.34-0.05 79.37-0.55 79.39-1.05 79.54-1.25L79.54-1.25Q79.84-1.25 80.57-1.33 81.29-1.4 81.94-1.6 82.59-1.8 82.64-2.05L82.64-2.05Q82.84-2.65 82.87-3.6 82.89-4.55 82.89-5.65L82.89-5.65 82.89-10.55Q82.89-13.6 82.49-15.33 82.09-17.05 81.04-17.8 79.99-18.55 78.09-18.55L78.09-18.55Q77.19-18.55 76.12-17.98 75.04-17.4 74.24-16.75 73.44-16.1 73.44-15.85L73.44-15.85 73.44-5.65Q73.44-4.55 73.47-3.6 73.49-2.65 73.69-2.05L73.69-2.05Q73.79-1.8 74.42-1.6 75.04-1.4 75.74-1.33 76.44-1.25 76.74-1.25L76.74-1.25Q76.89-1.05 76.92-0.55 76.94-0.05 76.74 0.15L76.74 0.15Q75.24 0.05 74.12-0.03 72.99-0.1 71.54-0.1L71.54-0.1Q70.14-0.1 68.99-0.03 67.84 0.05 66.34 0.15L66.34 0.15Q66.14-0.05 66.17-0.55 66.19-1.05 66.34-1.25L66.34-1.25Q66.64-1.25 67.37-1.33 68.09-1.4 68.74-1.6 69.39-1.8 69.44-2.05L69.44-2.05Q69.64-2.65 69.67-3.6 69.69-4.55 69.69-5.65L69.69-5.65 69.69-14.55Q69.69-15.05 69.67-15.95 69.64-16.85 69.44-17.3L69.44-17.3Q69.29-17.75 68.59-17.93 67.89-18.1 67.19-18.13 66.49-18.15 66.29-18.15L66.29-18.15Q66.24-18.25 66.19-18.75 66.14-19.25 66.29-19.45L66.29-19.45Q68.19-19.7 69.99-20.2 71.79-20.7 73.24-21.5L73.24-21.5Q73.44-21.5 73.62-21.2 73.79-20.9 73.79-20.7L73.79-20.7Q73.79-20.55 73.72-19.93 73.64-19.3 73.57-18.7 73.49-18.1 73.49-17.9L73.49-17.9Q73.49-17.7 73.59-17.7L73.59-17.7Q73.64-17.7 73.74-17.8L73.74-17.8Q74.24-18.35 75.37-19.2 76.49-20.05 77.84-20.73 79.19-21.4 80.34-21.4ZM102.29-21.3L102.29-21.3Q103.69-21.3 104.92-20.4 106.14-19.5 106.89-18 107.64-16.5 107.64-14.6L107.64-14.6 107.64-4.55Q107.64-3.6 107.99-2.93 108.34-2.25 109.14-2.25L109.14-2.25Q109.84-2.25 110.24-2.55 110.64-2.85 110.74-2.9L110.74-2.9Q110.84-2.9 110.89-2.75 110.94-2.6 110.94-2.5L110.94-2.5Q110.94-1.95 110.69-1.55L110.69-1.55Q110.39-1.3 109.72-0.85 109.04-0.4 108.32-0.05 107.59 0.3 107.04 0.3L107.04 0.3Q105.99 0.3 105.17-0.75 104.34-1.8 104.09-2.9L104.09-2.9Q103.89-2.7 103.17-2.15 102.44-1.6 101.49-1.03 100.54-0.45 99.62-0.03 98.69 0.4 98.04 0.4L98.04 0.4Q95.64 0.4 93.99-1.23 92.34-2.85 92.34-5.2L92.34-5.2Q92.34-6.7 93.17-7.78 93.99-8.85 94.79-9.15L94.79-9.15Q96.19-9.65 97.92-10.23 99.64-10.8 101.14-11.35 102.64-11.9 103.34-12.2L103.34-12.2Q103.74-12.35 103.84-12.58 103.94-12.8 103.94-13.45L103.94-13.45 103.94-14.75Q103.94-15.85 103.39-16.93 102.84-18 101.89-18.73 100.94-19.45 99.74-19.45L99.74-19.45Q98.49-19.45 97.89-18.65 97.29-17.85 97.04-16.4L97.04-16.4Q96.59-14.05 94.74-14.05L94.74-14.05Q93.94-14.05 93.52-14.7 93.09-15.35 93.09-16.1L93.09-16.1Q93.09-16.25 93.19-16.68 93.29-17.1 93.44-17.3L93.44-17.3Q94.19-18 95.59-18.95 96.99-19.9 98.77-20.6 100.54-21.3 102.29-21.3ZM99.69-2.25L99.69-2.25Q100.54-2.25 101.54-2.65 102.54-3.05 103.24-3.53 103.94-4 103.94-4.25L103.94-4.25 103.94-10.9Q102.99-10.6 101.54-10.15 100.09-9.7 99.39-9.45L99.39-9.45Q98.09-8.95 97.24-8 96.39-7.05 96.39-5.65L96.39-5.65Q96.39-4.3 97.34-3.28 98.29-2.25 99.69-2.25ZM127.29-21.4L127.29-21.4Q129.94-21.4 131.29-20.3 132.64-19.2 133.11-16.9 133.59-14.6 133.59-11.05L133.59-11.05 133.59-5.65Q133.59-4.55 133.61-3.6 133.64-2.65 133.84-2.05L133.84-2.05Q133.94-1.8 134.56-1.6 135.19-1.4 135.89-1.33 136.59-1.25 136.89-1.25L136.89-1.25Q137.04-1.05 137.06-0.55 137.09-0.05 136.89 0.15L136.89 0.15Q135.39 0.05 134.26-0.03 133.14-0.1 131.69-0.1L131.69-0.1Q130.29-0.1 129.14-0.03 127.99 0.05 126.49 0.15L126.49 0.15Q126.29-0.05 126.31-0.55 126.34-1.05 126.49-1.25L126.49-1.25Q126.79-1.25 127.51-1.33 128.24-1.4 128.89-1.6 129.54-1.8 129.59-2.05L129.59-2.05Q129.79-2.65 129.81-3.6 129.84-4.55 129.84-5.65L129.84-5.65 129.84-10.55Q129.84-13.6 129.44-15.33 129.04-17.05 127.99-17.8 126.94-18.55 125.04-18.55L125.04-18.55Q124.14-18.55 123.06-17.98 121.99-17.4 121.19-16.75 120.39-16.1 120.39-15.85L120.39-15.85 120.39-5.65Q120.39-4.55 120.41-3.6 120.44-2.65 120.64-2.05L120.64-2.05Q120.74-1.8 121.36-1.6 121.99-1.4 122.69-1.33 123.39-1.25 123.69-1.25L123.69-1.25Q123.84-1.05 123.86-0.55 123.89-0.05 123.69 0.15L123.69 0.15Q122.19 0.05 121.06-0.03 119.94-0.1 118.49-0.1L118.49-0.1Q117.09-0.1 115.94-0.03 114.79 0.05 113.29 0.15L113.29 0.15Q113.09-0.05 113.11-0.55 113.14-1.05 113.29-1.25L113.29-1.25Q113.59-1.25 114.31-1.33 115.04-1.4 115.69-1.6 116.34-1.8 116.39-2.05L116.39-2.05Q116.59-2.65 116.61-3.6 116.64-4.55 116.64-5.65L116.64-5.65 116.64-14.55Q116.64-15.05 116.61-15.95 116.59-16.85 116.39-17.3L116.39-17.3Q116.24-17.75 115.54-17.93 114.84-18.1 114.14-18.13 113.44-18.15 113.24-18.15L113.24-18.15Q113.19-18.25 113.14-18.75 113.09-19.25 113.24-19.45L113.24-19.45Q115.14-19.7 116.94-20.2 118.74-20.7 120.19-21.5L120.19-21.5Q120.39-21.5 120.56-21.2 120.74-20.9 120.74-20.7L120.74-20.7Q120.74-20.55 120.66-19.93 120.59-19.3 120.51-18.7 120.44-18.1 120.44-17.9L120.44-17.9Q120.44-17.7 120.54-17.7L120.54-17.7Q120.59-17.7 120.69-17.8L120.69-17.8Q121.19-18.35 122.31-19.2 123.44-20.05 124.79-20.73 126.14-21.4 127.29-21.4ZM151.04-21.4L151.04-21.4Q151.84-21.4 152.94-21.23 154.04-21.05 154.39-20.9L154.39-20.9Q154.64-20.9 154.64-21.9L154.64-21.9 154.64-27.25Q154.64-27.8 154.61-28.58 154.59-29.35 154.39-29.8L154.39-29.8Q154.19-30.35 153.29-30.5 152.39-30.65 151.39-30.65L151.39-30.65Q151.34-30.65 151.31-31.28 151.29-31.9 151.44-31.95L151.44-31.95Q153.29-32.15 155.06-32.68 156.84-33.2 158.39-33.9L158.39-33.9Q158.59-33.9 158.76-33.63 158.94-33.35 158.94-33.1L158.94-33.1Q158.94-33.1 158.66-32 158.39-30.9 158.39-28.85L158.39-28.85 158.39-7.95Q158.39-6.55 158.46-5.13 158.54-3.7 158.74-3.15L158.74-3.15Q158.99-2.6 159.91-2.48 160.84-2.35 161.34-2.3L161.34-2.3Q161.54-2.3 161.59-2.3L161.59-2.3Q161.69-2.25 161.71-2.02 161.74-1.8 161.74-1.7L161.74-1.7Q161.74-1.65 161.66-1.33 161.59-1 161.39-1L161.39-1Q160.14-0.95 158.66-0.6 157.19-0.25 156.14 0.08 155.09 0.4 155.04 0.4L155.04 0.4Q154.84 0.4 154.74 0.05 154.64-0.3 154.64-0.55L154.64-0.55 154.64-2.25Q154.64-2.7 154.49-2.55L154.49-2.55Q154.14-2.15 153.01-1.45 151.89-0.75 150.54-0.18 149.19 0.4 147.99 0.4L147.99 0.4Q145.79 0.4 143.81-0.98 141.84-2.35 140.61-4.73 139.39-7.1 139.39-10.05L139.39-10.05Q139.39-12.45 140.56-14.53 141.74-16.6 143.56-18.13 145.39-19.65 147.39-20.53 149.39-21.4 151.04-21.4ZM149.44-19.35L149.44-19.35Q147.59-19.35 146.26-18.18 144.94-17 144.21-15.15 143.49-13.3 143.49-11.25L143.49-11.25Q143.49-8.95 144.29-7 145.09-5.05 146.64-3.85 148.19-2.65 150.39-2.65L150.39-2.65Q152.04-2.65 153.34-3.33 154.64-4 154.64-4.6L154.64-4.6 154.64-16.95Q154.64-17.8 153.06-18.57 151.49-19.35 149.44-19.35ZM174.98-21.45L174.98-21.45Q178.23-21.45 180.56-20.05 182.88-18.65 184.16-16.25 185.43-13.85 185.43-10.8L185.43-10.8Q185.43-7.65 184.08-5.13 182.73-2.6 180.38-1.13 178.03 0.35 175.08 0.35L175.08 0.35Q171.88 0.35 169.51-1.07 167.13-2.5 165.86-4.93 164.58-7.35 164.58-10.4L164.58-10.4Q164.58-13.55 165.96-16.05 167.33-18.55 169.68-20 172.03-21.45 174.98-21.45ZM174.43-19.8L174.43-19.8Q172.38-19.8 171.13-18.57 169.88-17.35 169.33-15.43 168.78-13.5 168.78-11.4L168.78-11.4Q168.78-9.05 169.56-6.7 170.33-4.35 171.86-2.8 173.38-1.25 175.58-1.25L175.58-1.25Q177.68-1.25 178.91-2.48 180.13-3.7 180.68-5.65 181.23-7.6 181.23-9.65L181.23-9.65Q181.23-12.05 180.43-14.38 179.63-16.7 178.13-18.25 176.63-19.8 174.43-19.8ZM207.73-32.3L226.83-32.3Q227.43-32.3 228.38-32.55 229.33-32.8 229.78-33L229.78-33Q230.18-33.2 230.33-33.2 230.48-33.2 230.68-33.1L230.68-33.1Q230.93-30.85 231.25-28.75 231.58-26.65 231.98-24.7L231.98-24.7Q231.88-24.6 231.63-24.45 231.38-24.3 231.03-24.35L231.03-24.35Q230.48-24.35 230.33-24.6L230.33-24.6Q229.83-27.15 228.68-28.85 227.53-30.55 225.68-30.55L225.68-30.55 219.48-30.55 219.48-5.65Q219.48-4.55 219.5-3.6 219.53-2.65 219.73-2.05L219.73-2.05Q219.83-1.8 220.53-1.6 221.23-1.4 222-1.33 222.78-1.25 223.08-1.25L223.08-1.25Q223.23-1.05 223.25-0.55 223.28-0.05 223.08 0.15L223.08 0.15Q221.58 0.05 220.2-0.03 218.83-0.1 217.38-0.1L217.38-0.1Q215.98-0.1 214.53-0.03 213.08 0.05 211.58 0.15L211.58 0.15Q211.38-0.05 211.4-0.55 211.43-1.05 211.58-1.25L211.58-1.25Q211.88-1.25 212.68-1.33 213.48-1.4 214.2-1.6 214.93-1.8 214.98-2.05L214.98-2.05Q215.18-2.65 215.2-3.6 215.23-4.55 215.23-5.65L215.23-5.65 215.23-30.55 208.93-30.55Q207.08-30.55 205.93-28.85 204.78-27.15 204.23-24.6L204.23-24.6Q204.08-24.35 203.53-24.35L203.53-24.35Q203.18-24.3 202.95-24.45 202.73-24.6 202.63-24.7L202.63-24.7Q203.03-26.65 203.33-28.75 203.63-30.85 203.88-33.1L203.88-33.1Q204.13-33.2 204.48-33.13 204.83-33.05 205.03-32.95L205.03-32.95Q205.48-32.75 206.3-32.52 207.13-32.3 207.73-32.3L207.73-32.3ZM240.13-21.3L240.13-21.3Q241.53-21.3 242.75-20.4 243.98-19.5 244.73-18 245.48-16.5 245.48-14.6L245.48-14.6 245.48-4.55Q245.48-3.6 245.83-2.93 246.18-2.25 246.98-2.25L246.98-2.25Q247.68-2.25 248.08-2.55 248.48-2.85 248.58-2.9L248.58-2.9Q248.68-2.9 248.73-2.75 248.78-2.6 248.78-2.5L248.78-2.5Q248.78-1.95 248.53-1.55L248.53-1.55Q248.23-1.3 247.55-0.85 246.88-0.4 246.15-0.05 245.43 0.3 244.88 0.3L244.88 0.3Q243.83 0.3 243-0.75 242.18-1.8 241.93-2.9L241.93-2.9Q241.73-2.7 241-2.15 240.28-1.6 239.33-1.03 238.38-0.45 237.45-0.03 236.53 0.4 235.88 0.4L235.88 0.4Q233.48 0.4 231.83-1.23 230.18-2.85 230.18-5.2L230.18-5.2Q230.18-6.7 231-7.78 231.83-8.85 232.63-9.15L232.63-9.15Q234.03-9.65 235.75-10.23 237.48-10.8 238.98-11.35 240.48-11.9 241.18-12.2L241.18-12.2Q241.58-12.35 241.68-12.58 241.78-12.8 241.78-13.45L241.78-13.45 241.78-14.75Q241.78-15.85 241.23-16.93 240.68-18 239.73-18.73 238.78-19.45 237.58-19.45L237.58-19.45Q236.33-19.45 235.73-18.65 235.13-17.85 234.88-16.4L234.88-16.4Q234.43-14.05 232.58-14.05L232.58-14.05Q231.78-14.05 231.35-14.7 230.93-15.35 230.93-16.1L230.93-16.1Q230.93-16.25 231.03-16.68 231.13-17.1 231.28-17.3L231.28-17.3Q232.03-18 233.43-18.95 234.83-19.9 236.6-20.6 238.38-21.3 240.13-21.3ZM237.53-2.25L237.53-2.25Q238.38-2.25 239.38-2.65 240.38-3.05 241.08-3.53 241.78-4 241.78-4.25L241.78-4.25 241.78-10.9Q240.83-10.6 239.38-10.15 237.93-9.7 237.23-9.45L237.23-9.45Q235.93-8.95 235.08-8 234.23-7.05 234.23-5.65L234.23-5.65Q234.23-4.3 235.18-3.28 236.13-2.25 237.53-2.25ZM264.97-21.4L264.97-21.4Q267.17-21.4 268.55-20.48 269.92-19.55 270.52-17.35L270.52-17.35Q272.12-18.8 274.05-20.1 275.97-21.4 277.72-21.4L277.72-21.4Q280.37-21.4 281.72-20.3 283.07-19.2 283.55-16.9 284.02-14.6 284.02-11.05L284.02-11.05 284.02-5.65Q284.02-4.55 284.05-3.6 284.07-2.65 284.27-2.05L284.27-2.05Q284.37-1.8 285-1.6 285.62-1.4 286.32-1.33 287.02-1.25 287.32-1.25L287.32-1.25Q287.47-1.05 287.5-0.55 287.52-0.05 287.32 0.15L287.32 0.15Q285.82 0.05 284.7-0.03 283.57-0.1 282.12-0.1L282.12-0.1Q280.72-0.1 279.57-0.03 278.42 0.05 276.92 0.15L276.92 0.15Q276.72-0.05 276.75-0.55 276.77-1.05 276.92-1.25L276.92-1.25Q277.22-1.25 277.95-1.33 278.67-1.4 279.32-1.6 279.97-1.8 280.02-2.05L280.02-2.05Q280.17-2.55 280.2-3.33 280.22-4.1 280.22-5.05L280.22-5.05Q280.22-5.2 280.22-5.35 280.22-5.5 280.22-5.65L280.22-5.65 280.22-10.9Q280.22-13.35 279.9-15.05 279.57-16.75 278.62-17.65 277.67-18.55 275.67-18.55L275.67-18.55Q274.47-18.55 273.37-17.93 272.27-17.3 271.57-16.63 270.87-15.95 270.87-15.75L270.87-15.75Q270.87-15.7 270.9-15.48 270.92-15.25 270.92-15.15L270.92-15.15Q271.02-14.45 271.07-13.4 271.12-12.35 271.12-11.65L271.12-11.65 271.12-5.65Q271.12-4.55 271.15-3.6 271.17-2.65 271.37-2.05L271.37-2.05Q271.47-1.8 272.1-1.6 272.72-1.4 273.42-1.33 274.12-1.25 274.42-1.25L274.42-1.25Q274.57-1.05 274.6-0.55 274.62-0.05 274.42 0.15L274.42 0.15Q272.92 0.05 271.8-0.03 270.67-0.1 269.22-0.1L269.22-0.1Q267.82-0.1 266.67-0.03 265.52 0.05 264.02 0.15L264.02 0.15Q263.82-0.05 263.85-0.55 263.87-1.05 264.02-1.25L264.02-1.25Q264.32-1.25 265.05-1.33 265.77-1.4 266.42-1.6 267.07-1.8 267.12-2.05L267.12-2.05Q267.32-2.65 267.35-3.6 267.37-4.55 267.37-5.65L267.37-5.65 267.37-10.65Q267.37-15.1 266.4-16.82 265.42-18.55 262.77-18.55L262.77-18.55Q261.67-18.55 260.62-18 259.57-17.45 258.9-16.82 258.22-16.2 258.22-15.85L258.22-15.85 258.22-5.65Q258.22-4.55 258.25-3.6 258.27-2.65 258.47-2.05L258.47-2.05Q258.57-1.8 259.2-1.6 259.82-1.4 260.52-1.33 261.22-1.25 261.52-1.25L261.52-1.25Q261.67-1.05 261.7-0.55 261.72-0.05 261.52 0.15L261.52 0.15Q260.02 0.05 258.9-0.03 257.77-0.1 256.32-0.1L256.32-0.1Q254.92-0.1 253.77-0.03 252.62 0.05 251.12 0.15L251.12 0.15Q250.92-0.05 250.95-0.55 250.97-1.05 251.12-1.25L251.12-1.25Q251.42-1.25 252.15-1.33 252.87-1.4 253.52-1.6 254.17-1.8 254.22-2.05L254.22-2.05Q254.42-2.65 254.45-3.6 254.47-4.55 254.47-5.65L254.47-5.65 254.47-14.55Q254.47-15.05 254.45-15.95 254.42-16.85 254.22-17.3L254.22-17.3Q254.07-17.75 253.37-17.93 252.67-18.1 251.97-18.13 251.27-18.15 251.07-18.15L251.07-18.15Q251.02-18.25 250.97-18.75 250.92-19.25 251.07-19.45L251.07-19.45Q252.97-19.7 254.77-20.2 256.57-20.7 258.02-21.5L258.02-21.5Q258.22-21.5 258.4-21.2 258.57-20.9 258.57-20.7L258.57-20.7Q258.57-20.55 258.5-20 258.42-19.45 258.35-18.9 258.27-18.35 258.27-18.15L258.27-18.15Q258.27-17.95 258.37-17.95L258.37-17.95Q258.42-17.95 258.52-18.05L258.52-18.05Q259.12-18.6 260.12-19.38 261.12-20.15 262.4-20.78 263.67-21.4 264.97-21.4ZM299.67-21.3L299.67-21.3Q301.07-21.3 302.3-20.4 303.52-19.5 304.27-18 305.02-16.5 305.02-14.6L305.02-14.6 305.02-4.55Q305.02-3.6 305.37-2.93 305.72-2.25 306.52-2.25L306.52-2.25Q307.22-2.25 307.62-2.55 308.02-2.85 308.12-2.9L308.12-2.9Q308.22-2.9 308.27-2.75 308.32-2.6 308.32-2.5L308.32-2.5Q308.32-1.95 308.07-1.55L308.07-1.55Q307.77-1.3 307.1-0.85 306.42-0.4 305.69-0.05 304.97 0.3 304.42 0.3L304.42 0.3Q303.37 0.3 302.55-0.75 301.72-1.8 301.47-2.9L301.47-2.9Q301.27-2.7 300.55-2.15 299.82-1.6 298.87-1.03 297.92-0.45 297-0.03 296.07 0.4 295.42 0.4L295.42 0.4Q293.02 0.4 291.37-1.23 289.72-2.85 289.72-5.2L289.72-5.2Q289.72-6.7 290.55-7.78 291.37-8.85 292.17-9.15L292.17-9.15Q293.57-9.65 295.3-10.23 297.02-10.8 298.52-11.35 300.02-11.9 300.72-12.2L300.72-12.2Q301.12-12.35 301.22-12.58 301.32-12.8 301.32-13.45L301.32-13.45 301.32-14.75Q301.32-15.85 300.77-16.93 300.22-18 299.27-18.73 298.32-19.45 297.12-19.45L297.12-19.45Q295.87-19.45 295.27-18.65 294.67-17.85 294.42-16.4L294.42-16.4Q293.97-14.05 292.12-14.05L292.12-14.05Q291.32-14.05 290.9-14.7 290.47-15.35 290.47-16.1L290.47-16.1Q290.47-16.25 290.57-16.68 290.67-17.1 290.82-17.3L290.82-17.3Q291.57-18 292.97-18.95 294.37-19.9 296.15-20.6 297.92-21.3 299.67-21.3ZM297.07-2.25L297.07-2.25Q297.92-2.25 298.92-2.65 299.92-3.05 300.62-3.53 301.32-4 301.32-4.25L301.32-4.25 301.32-10.9Q300.37-10.6 298.92-10.15 297.47-9.7 296.77-9.45L296.77-9.45Q295.47-8.95 294.62-8 293.77-7.05 293.77-5.65L293.77-5.65Q293.77-4.3 294.72-3.28 295.67-2.25 297.07-2.25ZM313.32-20.75L313.32-20.75Q314.72-20.75 316.14-20.85 317.57-20.95 318.22-21L318.22-21Q318.32-20.8 318.27-20.2 318.22-19.6 318.02-19.6L318.02-19.6Q317.87-19.6 317.27-19.55 316.67-19.5 316.14-19.33 315.62-19.15 315.62-18.75L315.62-18.75Q315.62-18.65 315.67-18.55L315.67-18.55 320.87-5.35Q320.87-5.35 321.27-6.43 321.67-7.5 322.32-9.18 322.97-10.85 323.72-12.8 324.47-14.75 325.17-16.45L325.17-16.45Q325.37-16.9 325.42-17.32 325.47-17.75 325.47-18L325.47-18Q325.47-18.75 324.69-19.18 323.92-19.6 322.67-19.6L322.67-19.6Q322.47-19.6 322.47-20.2 322.47-20.8 322.67-21L322.67-21Q323.22-20.95 324.39-20.85 325.57-20.75 327.07-20.75L327.07-20.75Q328.47-20.75 329.44-20.85 330.42-20.95 331.17-21L331.17-21Q331.32-20.8 331.24-20.2 331.17-19.6 331.02-19.6L331.02-19.6Q330.82-19.6 330.19-19.45 329.57-19.3 328.89-18.95 328.22-18.6 327.92-17.9L327.92-17.9Q326.82-15.3 325.94-13.2 325.07-11.1 324.24-9.13 323.42-7.15 322.54-5.03 321.67-2.9 320.62-0.3L320.62-0.3Q319.72 1.95 318.87 4.2 318.02 6.45 316.72 8.4L316.72 8.4Q315.92 9.65 314.79 10.4 313.67 11.15 312.47 11.15L312.47 11.15Q311.77 11.15 311.07 10.75 310.37 10.35 310.37 9.05L310.37 9.05Q310.37 8.6 310.54 8.2 310.72 7.8 310.92 7.6L310.92 7.6Q312.07 7.6 312.94 7.48 313.82 7.35 314.64 6.75 315.47 6.15 316.47 4.85L316.47 4.85Q316.87 4.3 317.37 3.23 317.87 2.15 318.29 1.15 318.72 0.15 318.77-0.1L318.77-0.1Q317.42-3.6 316.22-6.63 315.02-9.65 313.79-12.58 312.57-15.5 311.12-18.6L311.12-18.6Q310.77-19.35 309.87-19.48 308.97-19.6 308.52-19.6L308.52-19.6Q308.42-19.6 308.42-19.6L308.42-19.6Q308.37-19.6 308.37-20.28 308.37-20.95 308.42-21L308.42-21Q309.12-20.95 310.47-20.85 311.82-20.75 313.32-20.75ZM343.01-21.45L343.01-21.45Q346.26-21.45 348.59-20.05 350.92-18.65 352.19-16.25 353.47-13.85 353.47-10.8L353.47-10.8Q353.47-7.65 352.12-5.13 350.76-2.6 348.42-1.13 346.06 0.35 343.12 0.35L343.12 0.35Q339.92 0.35 337.54-1.07 335.17-2.5 333.89-4.93 332.62-7.35 332.62-10.4L332.62-10.4Q332.62-13.55 333.99-16.05 335.37-18.55 337.72-20 340.06-21.45 343.01-21.45ZM342.47-19.8L342.47-19.8Q340.42-19.8 339.17-18.57 337.92-17.35 337.37-15.43 336.81-13.5 336.81-11.4L336.81-11.4Q336.81-9.05 337.59-6.7 338.37-4.35 339.89-2.8 341.42-1.25 343.62-1.25L343.62-1.25Q345.72-1.25 346.94-2.48 348.17-3.7 348.72-5.65 349.26-7.6 349.26-9.65L349.26-9.65Q349.26-12.05 348.47-14.38 347.67-16.7 346.17-18.25 344.67-19.8 342.47-19.8Z" opacity="1" transform="matrix(1,0,0,1,0,0)" fill="#ffffff" class="wordmark-text-0" data-fill-palette-color="primary" id="text-0"></path></svg></g></svg></g><g transform="matrix(1,0,0,1,205.44770183859598,62.662908304254415)"><svg viewBox="0 0 190.07229816140395 31.329527741036337" height="31.329527741036337" width="190.07229816140395"><g transform="matrix(1,0,0,1,0,0)"><svg width="190.07229816140395" viewBox="1.85 -31.7 195.02 32.15" height="31.329527741036337" data-palette-color="#cf2304"><path d="M9.15 0.35L9.15 0.35Q6.9 0.35 5.28-0.45 3.65-1.25 2.75-3.13 1.85-5 1.85-8.35L1.85-8.35 1.85-10Q2.65-10 3.48-10 4.3-10 5.05-10L5.05-10 5.05-8.15Q5.05-5.65 5.58-4.28 6.1-2.9 7.03-2.35 7.95-1.8 9.15-1.8L9.15-1.8Q11.1-1.8 12.33-3.03 13.55-4.25 13.55-7.4L13.55-7.4Q13.55-9.65 12.9-10.78 12.25-11.9 10.9-12.58 9.55-13.25 7.6-14.05L7.6-14.05Q6-14.7 4.73-15.63 3.45-16.55 2.75-18.05 2.05-19.55 2.05-21.85L2.05-21.85Q2.05-24.45 2.75-26.18 3.45-27.9 5.05-28.75 6.65-29.6 9.3-29.6L9.3-29.6Q12.75-29.6 14.63-27.88 16.5-26.15 16.5-23L16.5-23 16.5-19.75Q15.75-19.75 14.98-19.75 14.2-19.75 13.4-19.75L13.4-19.75 13.4-22.25Q13.4-24.65 12.38-25.88 11.35-27.1 9.35-27.1L9.35-27.1Q7.15-27.1 6.18-25.83 5.2-24.55 5.2-21.95L5.2-21.95Q5.2-20 5.95-18.88 6.7-17.75 7.9-17.13 9.1-16.5 10.45-16L10.45-16Q12.7-15.15 14.1-14.23 15.5-13.3 16.15-11.85 16.8-10.4 16.8-7.8L16.8-7.8Q16.8-4.75 15.83-2.98 14.85-1.2 13.13-0.43 11.4 0.35 9.15 0.35ZM27.55 0.35L27.55 0.35Q25.25 0.35 23.72-0.28 22.2-0.9 21.47-2.5 20.75-4.1 20.75-6.9L20.75-6.9 20.75-18.45Q20.75-22.05 22.32-23.6 23.9-25.15 27.55-25.15L27.55-25.15Q31.2-25.15 32.77-23.65 34.35-22.15 34.35-18.45L34.35-18.45 34.35-6.9Q34.35-4.1 33.65-2.53 32.95-0.95 31.45-0.3 29.95 0.35 27.55 0.35ZM27.55-1.6L27.55-1.6Q29.55-1.6 30.4-2.6 31.25-3.6 31.25-6.25L31.25-6.25 31.25-18.6Q31.25-21.05 30.45-22.13 29.65-23.2 27.55-23.2L27.55-23.2Q25.6-23.2 24.72-22.18 23.85-21.15 23.85-18.6L23.85-18.6 23.85-6.25Q23.85-3.65 24.72-2.63 25.6-1.6 27.55-1.6ZM42.09 0L39.05 0 39.05-21.85 37.49-21.85 37.49-23.8 39.05-23.8 39.05-26.8Q39.05-28.15 39.37-29.1 39.7-30.05 40.3-30.63 40.89-31.2 41.72-31.45 42.55-31.7 43.55-31.7L43.55-31.7Q44.34-31.7 45.17-31.68 45.99-31.65 46.7-31.58 47.39-31.5 47.7-31.5L47.7-31.5 47.7-29.75Q47.14-29.85 46.39-29.93 45.64-30 44.59-30L44.59-30Q43.34-30 42.72-29.28 42.09-28.55 42.09-26.7L42.09-26.7 42.09-23.8 47.7-23.8 47.7-21.85 42.09-21.85 42.09 0ZM54.49 0.05L54.49 0.05Q53.39 0.05 52.49-0.2 51.59-0.45 50.94-1.03 50.29-1.6 49.94-2.53 49.59-3.45 49.59-4.85L49.59-4.85 49.59-22.8 47.39-22.8 47.39-24.4 49.79-24.75 50.34-29.4 52.69-29.4 52.69-24.75 58.04-24.75 58.04-22.8 52.69-22.8 52.69-5.4Q52.69-4 53.19-3.05 53.69-2.1 55.39-2.1L55.39-2.1Q56.09-2.1 56.89-2.18 57.69-2.25 58.04-2.25L58.04-2.25 58.04-0.25Q57.64-0.25 56.64-0.1 55.64 0.05 54.49 0.05ZM68.24 0L64.69 0 59.14-24.75 62.14-24.75 66.49-3.95 70.74-24.75 73.69-24.75 78.19-3.95 82.24-24.75 85.19-24.75 79.84 0 76.29 0 72.19-18.6 68.24 0ZM92.94 0.35L92.94 0.35Q91.79 0.35 90.61 0.03 89.44-0.3 88.61-1.48 87.79-2.65 87.79-5.15L87.79-5.15 87.79-7.55Q87.79-10.05 89.31-11.58 90.84-13.1 93.49-14.3L93.49-14.3Q95.19-15.15 96.26-15.8 97.34-16.45 97.89-17.25 98.44-18.05 98.44-19.4L98.44-19.4 98.44-20.45Q98.44-21.65 97.94-22.3 97.44-22.95 96.61-23.2 95.79-23.45 94.89-23.45L94.89-23.45Q92.64-23.45 91.94-22.23 91.24-21 91.24-18.6L91.24-18.6 91.24-16.5 88.39-16.5 88.39-18.9Q88.39-20.75 88.89-22.18 89.39-23.6 90.79-24.43 92.19-25.25 94.89-25.25L94.89-25.25Q97.74-25.25 99.16-24.6 100.59-23.95 101.06-22.75 101.54-21.55 101.54-19.9L101.54-19.9 101.54 0 98.49 0 98.44-3.1Q97.84-1.4 96.29-0.53 94.74 0.35 92.94 0.35ZM94.09-1.75L94.09-1.75Q96.34-1.75 97.36-3.35 98.39-4.95 98.39-7.6L98.39-7.6 98.39-15.5Q97.89-14.7 96.74-14.05 95.59-13.4 94.39-12.75L94.39-12.75Q92.69-11.75 91.76-10.68 90.84-9.6 90.84-7.7L90.84-7.7 90.84-5.75Q90.84-3.95 91.34-3.1 91.84-2.25 92.59-2 93.34-1.75 94.09-1.75ZM109.49 0L106.39 0 106.39-24.75 108.99-24.75 109.34-22.1Q109.89-23.5 111.14-24.1 112.39-24.7 113.64-24.85L113.64-24.85Q115.04-25.15 116.34-24.9L116.34-24.9 116.34-22.45Q116.14-22.5 115.64-22.55 115.14-22.6 114.56-22.6 113.99-22.6 113.49-22.4L113.49-22.4Q111.79-22.2 110.64-21.18 109.49-20.15 109.49-18.4L109.49-18.4 109.49 0ZM125.43 0.45L125.43 0.45Q122.93 0.45 121.38-0.13 119.83-0.7 119.13-2.25 118.43-3.8 118.43-6.75L118.43-6.75 118.43-19.1Q118.43-22.6 120.01-23.9 121.58-25.2 125.23-25.2L125.23-25.2Q128.78-25.2 130.36-23.9 131.93-22.6 131.93-19.1L131.93-19.1 131.93-12.7 121.53-12.7 121.53-5.7Q121.53-3.3 122.28-2.38 123.03-1.45 125.33-1.45L125.33-1.45Q127.43-1.45 128.13-2.35 128.83-3.25 128.83-5.7L128.83-5.7 128.83-8.9 131.93-8.9 131.93-6.8Q131.93-3.9 131.23-2.33 130.53-0.75 129.11-0.15 127.68 0.45 125.43 0.45ZM121.53-19.2L121.53-14.3 128.83-14.3 128.83-19.2Q128.83-21.3 128.13-22.25 127.43-23.2 125.23-23.2L125.23-23.2Q123.03-23.2 122.28-22.25 121.53-21.3 121.53-19.2L121.53-19.2ZM154.58 0L146.13 0 146.13-29.55 154.98-29.55Q156.88-29.55 158.25-29 159.63-28.45 160.35-27.13 161.08-25.8 161.08-23.5L161.08-23.5 161.08-6.45Q161.08-3.9 160.28-2.5 159.48-1.1 158-0.55 156.53 0 154.58 0L154.58 0ZM149.38-27.65L149.38-1.8 154.18-1.8Q155.88-1.8 156.9-2.73 157.93-3.65 157.93-6.3L157.93-6.3 157.93-23.1Q157.93-25.75 156.9-26.7 155.88-27.65 154.18-27.65L154.18-27.65 149.38-27.65ZM172.83 0.45L172.83 0.45Q170.33 0.45 168.78-0.13 167.23-0.7 166.53-2.25 165.83-3.8 165.83-6.75L165.83-6.75 165.83-19.1Q165.83-22.6 167.4-23.9 168.98-25.2 172.63-25.2L172.63-25.2Q176.18-25.2 177.75-23.9 179.33-22.6 179.33-19.1L179.33-19.1 179.33-12.7 168.93-12.7 168.93-5.7Q168.93-3.3 169.68-2.38 170.43-1.45 172.73-1.45L172.73-1.45Q174.83-1.45 175.53-2.35 176.23-3.25 176.23-5.7L176.23-5.7 176.23-8.9 179.33-8.9 179.33-6.8Q179.33-3.9 178.63-2.33 177.93-0.75 176.5-0.15 175.08 0.45 172.83 0.45ZM168.93-19.2L168.93-14.3 176.23-14.3 176.23-19.2Q176.23-21.3 175.53-22.25 174.83-23.2 172.63-23.2L172.63-23.2Q170.43-23.2 169.68-22.25 168.93-21.3 168.93-19.2L168.93-19.2ZM191.27 0L187.62 0 181.82-24.75 185.02-24.75 189.67-3.55 189.57-3.55 193.92-24.75 196.87-24.75 191.27 0Z" opacity="1" transform="matrix(1,0,0,1,0,0)" fill="#cf2304" class="slogan-text-1" data-fill-palette-color="secondary" id="text-1"></path></svg></g></svg></g></svg></g></svg></g><g transform="matrix(1,0,0,1,407.4878795970758,0)"><svg viewBox="0 0 129.89754661459185 129.89754661459185" height="129.89754661459185" width="129.89754661459185"><g data-palette-color="#da2600"><rect width="35.505329407988434" height="129.89754661459185" fill="#da2600" stroke="transparent" data-fill-palette-color="accent" x="0" fill-opacity="1"></rect><rect width="35.505329407988434" height="129.89754661459185" fill="#da2600" stroke="transparent" data-fill-palette-color="accent" x="43.299182204863946" fill-opacity="0.75"></rect><rect width="35.505329407988434" height="129.89754661459185" fill="#da2600" stroke="transparent" data-fill-palette-color="accent" x="86.59836440972789" fill-opacity="0.5"></rect></g></svg></g></svg></g><defs></defs></svg><rect width="395.52" height="95.60564006952943" fill="none" stroke="none" visibility="hidden"></rect></g></svg></g></svg>