<svg xmlns="http://www.w3.org/2000/svg" xmlns:xlink="http://www.w3.org/1999/xlink" width="500" zoomAndPan="magnify" viewBox="0 0 375 374.999991" height="500" preserveAspectRatio="xMidYMid meet" version="1.0"><defs><g/><clipPath id="0b2eaa16cc"><path d="M 33.507812 200.605469 L 350.742188 200.605469 L 350.742188 237.679688 L 33.507812 237.679688 Z M 33.507812 200.605469 " clip-rule="nonzero"/></clipPath></defs><g fill="#3b3937" fill-opacity="1"><g transform="translate(176.410085, 273.355588)"><g><path d="M 28.71875 0 L 28.71875 -1.8125 L 32.546875 -1.8125 C 36.785156 -1.8125 40.085938 -2.78125 42.453125 -4.71875 C 44.816406 -6.664062 46 -9.941406 46 -14.546875 L 46 -127.984375 L 32 -127.984375 C 22.664062 -127.984375 16.03125 -126.195312 12.09375 -122.625 C 8.15625 -119.050781 5.941406 -112.71875 5.453125 -103.625 L 4.90625 -97.078125 L 3.09375 -97.078125 L 4.359375 -129.796875 L 109.265625 -129.796875 L 110.34375 -97.078125 L 108.53125 -97.078125 L 108.171875 -103.625 C 107.566406 -112.71875 105.289062 -119.050781 101.34375 -122.625 C 97.40625 -126.195312 90.769531 -127.984375 81.4375 -127.984375 L 67.265625 -127.984375 L 67.265625 -14.546875 C 67.265625 -9.941406 68.382812 -6.664062 70.625 -4.71875 C 72.863281 -2.78125 76.164062 -1.8125 80.53125 -1.8125 L 84.359375 -1.8125 L 84.359375 0 Z M 28.71875 0 "/></g></g></g><g fill="#3b3937" fill-opacity="1"><g transform="translate(89.688522, 216.929235)"><g><path d="M 6.359375 0 L 6.359375 -1.8125 L 10.1875 -1.8125 C 14.425781 -1.8125 17.726562 -2.78125 20.09375 -4.71875 C 22.457031 -6.664062 23.640625 -9.878906 23.640625 -14.359375 L 23.640625 -115.796875 C 23.640625 -120.160156 22.457031 -123.28125 20.09375 -125.15625 C 17.726562 -127.039062 14.425781 -127.984375 10.1875 -127.984375 L 6.359375 -127.984375 L 6.359375 -129.796875 L 100.53125 -129.796875 L 101.625 -97.625 L 99.8125 -97.625 L 99.265625 -103.625 C 98.773438 -112.71875 96.53125 -119.050781 92.53125 -122.625 C 88.53125 -126.195312 81.925781 -127.984375 72.71875 -127.984375 L 44.90625 -127.984375 L 44.90625 -65.8125 L 89.8125 -65.8125 L 89.8125 -64 L 44.90625 -64 L 44.90625 -14.546875 C 44.90625 -9.941406 46.023438 -6.664062 48.265625 -4.71875 C 50.503906 -2.78125 53.804688 -1.8125 58.171875 -1.8125 L 63.078125 -1.8125 L 63.078125 0 Z M 6.359375 0 "/></g></g></g><g fill="#3b3937" fill-opacity="1"><g transform="translate(101.099349, 248.606489)"><g><path d="M 1.988281 -2.421875 C 2.65625 -2.261719 3.109375 -2.089844 3.351562 -1.890625 C 3.519531 -1.753906 3.601562 -1.582031 3.601562 -1.371094 C 3.601562 -1.15625 3.554688 -0.984375 3.464844 -0.863281 C 3.238281 -0.542969 2.832031 -0.386719 2.253906 -0.386719 C 1.453125 -0.386719 1 -0.660156 0.902344 -1.203125 L 0.28125 -1.203125 C 0.460938 -0.332031 1.121094 0.0976562 2.253906 0.0976562 C 2.761719 0.0976562 3.1875 -0.0078125 3.527344 -0.234375 C 3.933594 -0.5 4.148438 -0.894531 4.148438 -1.40625 C 4.148438 -1.832031 3.980469 -2.15625 3.648438 -2.382812 C 3.414062 -2.550781 3.035156 -2.703125 2.511719 -2.835938 C 1.984375 -2.972656 1.640625 -3.085938 1.484375 -3.171875 C 1.136719 -3.34375 0.960938 -3.585938 0.96875 -3.90625 C 0.96875 -4.070312 1 -4.214844 1.074219 -4.320312 C 1.269531 -4.617188 1.621094 -4.765625 2.117188 -4.765625 C 2.824219 -4.765625 3.222656 -4.539062 3.328125 -4.101562 L 3.90625 -4.101562 C 3.714844 -4.84375 3.117188 -5.222656 2.117188 -5.222656 C 1.664062 -5.222656 1.265625 -5.101562 0.929688 -4.859375 C 0.589844 -4.617188 0.417969 -4.261719 0.417969 -3.777344 C 0.417969 -3.117188 0.945312 -2.664062 1.988281 -2.421875 Z M 1.988281 -2.421875 "/></g></g></g><g fill="#3b3937" fill-opacity="1"><g transform="translate(111.254463, 248.606489)"><g><path d="M 5.101562 -2.589844 C 5.101562 -1.996094 4.886719 -1.5 4.480469 -1.089844 C 4.0625 -0.671875 3.5625 -0.46875 2.980469 -0.46875 C 2.398438 -0.46875 1.898438 -0.671875 1.492188 -1.089844 C 1.074219 -1.5 0.871094 -1.996094 0.871094 -2.589844 C 0.871094 -3.164062 1.074219 -3.664062 1.492188 -4.078125 C 1.898438 -4.488281 2.398438 -4.699219 2.980469 -4.699219 C 3.5625 -4.699219 4.0625 -4.488281 4.480469 -4.078125 C 4.886719 -3.664062 5.101562 -3.164062 5.101562 -2.589844 Z M 5.628906 -2.589844 C 5.628906 -2.953125 5.554688 -3.292969 5.417969 -3.617188 C 5.28125 -3.933594 5.09375 -4.214844 4.851562 -4.457031 C 4.609375 -4.691406 4.328125 -4.878906 4.011719 -5.015625 C 3.683594 -5.152344 3.34375 -5.230469 2.980469 -5.230469 C 2.617188 -5.230469 2.269531 -5.152344 1.953125 -5.015625 C 1.632812 -4.878906 1.355469 -4.691406 1.113281 -4.457031 C 0.871094 -4.214844 0.679688 -3.933594 0.542969 -3.617188 C 0.410156 -3.292969 0.339844 -2.953125 0.339844 -2.589844 C 0.339844 -2.226562 0.410156 -1.875 0.542969 -1.558594 C 0.679688 -1.234375 0.871094 -0.953125 1.113281 -0.710938 C 1.355469 -0.46875 1.632812 -0.28125 1.953125 -0.144531 C 2.269531 -0.0078125 2.617188 0.0585938 2.980469 0.0585938 C 3.34375 0.0585938 3.683594 -0.0078125 4.011719 -0.144531 C 4.328125 -0.28125 4.609375 -0.46875 4.851562 -0.710938 C 5.09375 -0.953125 5.28125 -1.234375 5.417969 -1.558594 C 5.554688 -1.875 5.628906 -2.226562 5.628906 -2.589844 Z M 5.628906 -2.589844 "/></g></g></g><g fill="#3b3937" fill-opacity="1"><g transform="translate(123.036519, 248.606489)"><g><path d="M 3.625 -4.652344 L 3.625 -5.144531 L 0.566406 -5.144531 L 0.566406 0 L 1.097656 0 L 1.097656 -2.324219 L 3.550781 -2.324219 L 3.550781 -2.824219 L 1.097656 -2.824219 L 1.097656 -4.652344 Z M 3.625 -4.652344 "/></g></g></g><g fill="#3b3937" fill-opacity="1"><g transform="translate(132.624092, 248.606489)"><g><path d="M 0.152344 -4.667969 L 1.398438 -4.667969 L 1.398438 -0.015625 L 1.929688 -0.015625 L 1.929688 -4.667969 L 3.179688 -4.667969 L 3.179688 -5.160156 L 0.152344 -5.160156 Z M 0.152344 -4.667969 "/></g></g></g><g fill="#3b3937" fill-opacity="1"><g transform="translate(141.765209, 248.606489)"><g/></g></g><g fill="#3b3937" fill-opacity="1"><g transform="translate(149.619902, 248.606489)"><g><path d="M 4.5625 -2.574219 C 4.5625 -2.945312 4.488281 -3.285156 4.351562 -3.601562 C 4.214844 -3.917969 4.027344 -4.191406 3.792969 -4.417969 C 3.550781 -4.644531 3.269531 -4.820312 2.953125 -4.949219 C 2.625 -5.078125 2.277344 -5.144531 1.914062 -5.144531 L 0.566406 -5.144531 L 0.566406 0 L 1.914062 0 C 2.277344 0 2.625 -0.0585938 2.953125 -0.1875 C 3.269531 -0.316406 3.550781 -0.5 3.792969 -0.726562 C 4.027344 -0.953125 4.214844 -1.21875 4.351562 -1.535156 C 4.488281 -1.855469 4.5625 -2.195312 4.5625 -2.574219 Z M 4.046875 -2.574219 C 4.046875 -1.984375 3.835938 -1.492188 3.429688 -1.105469 C 3.019531 -0.71875 2.519531 -0.53125 1.929688 -0.53125 L 1.097656 -0.53125 L 1.097656 -4.617188 L 1.929688 -4.617188 C 2.519531 -4.617188 3.019531 -4.417969 3.429688 -4.039062 C 3.835938 -3.648438 4.046875 -3.15625 4.046875 -2.574219 Z M 4.046875 -2.574219 "/></g></g></g><g fill="#3b3937" fill-opacity="1"><g transform="translate(160.334995, 248.606489)"><g><path d="M 3.625 0 L 3.625 -0.492188 L 1.097656 -0.492188 L 1.097656 -2.324219 L 3.550781 -2.324219 L 3.550781 -2.824219 L 1.097656 -2.824219 L 1.097656 -4.652344 L 3.625 -4.652344 L 3.625 -5.144531 L 0.566406 -5.144531 L 0.566406 0 Z M 3.625 0 "/></g></g></g><g fill="#3b3937" fill-opacity="1"><g transform="translate(170.338765, 248.606489)"><g><path d="M 2.414062 0.308594 L 4.746094 -5.144531 L 4.167969 -5.144531 L 2.414062 -1 L 0.652344 -5.144531 L 0.0742188 -5.144531 Z M 2.414062 0.308594 "/></g></g></g><g clip-path="url(#0b2eaa16cc)"><path fill="#f4f4f4" d="M 33.507812 200.605469 L 350.800781 200.605469 L 350.800781 237.679688 L 33.507812 237.679688 Z M 33.507812 200.605469 " fill-opacity="1" fill-rule="nonzero"/></g><g fill="#967f71" fill-opacity="1"><g transform="translate(96.906509, 227.124491)"><g><path d="M 14.265625 -8.511719 C 14.027344 -8.496094 13.152344 -8.449219 12.070312 -8.371094 C 11.945312 -8.371094 11.820312 -8.417969 11.742188 -8.527344 C 11.664062 -8.636719 11.664062 -8.761719 11.710938 -8.886719 C 13.121094 -12.242188 14.074219 -15.738281 13.183594 -17.792969 C 12.773438 -18.746094 11.882812 -19.421875 10.832031 -19.5625 C 6.300781 -20.394531 2.492188 -16.726562 1.222656 -12.851562 C 0.265625 -9.96875 0.878906 -7.507812 2.789062 -6.566406 C 2.992188 -6.472656 3.246094 -6.550781 3.339844 -6.757812 C 3.433594 -6.960938 3.355469 -7.210938 3.152344 -7.304688 C 1.316406 -8.214844 1.347656 -10.628906 2.007812 -12.601562 C 3.167969 -16.128906 6.597656 -19.5 10.691406 -18.746094 C 11.457031 -18.652344 12.132812 -18.167969 12.429688 -17.460938 C 13.292969 -15.503906 12.101562 -11.882812 10.628906 -8.449219 C 10.535156 -8.246094 10.3125 -8.230469 10.171875 -8.230469 C 8.917969 -8.167969 7.679688 -7.996094 6.457031 -7.695312 C 6.253906 -7.617188 6.160156 -7.367188 6.238281 -7.164062 C 6.332031 -6.960938 6.566406 -6.851562 6.789062 -6.945312 C 7.664062 -7.148438 8.574219 -7.273438 9.484375 -7.335938 C 9.625 -7.351562 9.75 -7.289062 9.828125 -7.179688 C 9.90625 -7.070312 9.921875 -6.929688 9.859375 -6.804688 C 8.183594 -3.371094 6.394531 -0.53125 6.363281 -0.46875 C 6.253906 -0.28125 6.300781 -0.03125 6.488281 0.078125 C 6.675781 0.203125 6.929688 0.15625 7.054688 -0.03125 C 8.511719 -2.367188 9.828125 -4.78125 10.988281 -7.273438 C 11.050781 -7.398438 11.175781 -7.476562 11.300781 -7.492188 C 12.367188 -7.570312 13.433594 -7.648438 14.3125 -7.695312 C 14.421875 -7.695312 14.515625 -7.742188 14.59375 -7.835938 C 14.671875 -7.914062 14.703125 -8.027344 14.703125 -8.136719 C 14.671875 -8.355469 14.484375 -8.511719 14.265625 -8.511719 Z M 14.265625 -8.511719 "/></g></g></g><g fill="#967f71" fill-opacity="1"><g transform="translate(110.381023, 227.124491)"><g><path d="M 13.152344 -4.027344 C 13.074219 -4.105469 12.980469 -4.167969 12.871094 -4.167969 C 12.757812 -4.183594 12.648438 -4.152344 12.570312 -4.089844 C 12.507812 -4.042969 6.472656 0.753906 1.441406 -1.316406 C 0.421875 -1.738281 0.375 -2.289062 0.40625 -2.585938 C 0.40625 -2.632812 0.421875 -2.679688 0.46875 -2.710938 C 0.5 -2.742188 0.5625 -2.742188 0.609375 -2.726562 C 1.628906 -2.664062 2.648438 -2.929688 3.527344 -3.480469 C 4.277344 -3.964844 4.40625 -4.5 4.359375 -4.84375 C 4.328125 -5.40625 3.871094 -5.863281 3.292969 -5.878906 C 2.054688 -5.941406 -0.015625 -4.46875 -0.359375 -2.898438 C -0.5 -2.320312 -0.484375 -1.222656 1.128906 -0.5625 C 2.117188 -0.15625 3.152344 0.03125 4.199219 0.03125 C 8.699219 0.03125 12.871094 -3.277344 13.089844 -3.449219 C 13.167969 -3.511719 13.230469 -3.621094 13.230469 -3.714844 C 13.246094 -3.824219 13.214844 -3.933594 13.152344 -4.027344 Z M 0.972656 -3.683594 C 1.582031 -4.53125 2.601562 -5.09375 3.246094 -5.046875 C 3.417969 -5.046875 3.511719 -4.984375 3.542969 -4.75 C 3.558594 -4.59375 3.386719 -4.375 3.074219 -4.167969 C 2.429688 -3.746094 0.5 -3.054688 0.972656 -3.683594 Z M 0.972656 -3.683594 "/></g></g></g><g fill="#967f71" fill-opacity="1"><g transform="translate(122.931117, 227.124491)"><g><path d="M 13.511719 -4.121094 C 13.433594 -4.199219 13.339844 -4.246094 13.230469 -4.246094 C 13.121094 -4.246094 13.011719 -4.199219 12.933594 -4.121094 C 10.21875 -1.472656 5.40625 -0.910156 4.375 -1.519531 C 3.667969 -1.929688 3.746094 -2.414062 4.246094 -3.386719 C 4.484375 -3.855469 4.75 -4.40625 4.296875 -4.734375 C 3.871094 -5.046875 3.464844 -4.84375 3.105469 -4.65625 C 2.585938 -4.359375 2.007812 -4.199219 1.394531 -4.199219 C 1.253906 -4.199219 1.128906 -4.453125 1.160156 -4.546875 C 2.039062 -6.472656 1.644531 -6.835938 1.503906 -6.976562 C 1.269531 -7.210938 0.910156 -7.195312 0.46875 -6.929688 C -0.25 -6.410156 -0.5625 -5.484375 -0.3125 -4.625 C -0.25 -4.390625 -0.140625 -4.167969 0.015625 -3.980469 C 0 -3.808594 0.078125 -3.652344 0.234375 -3.574219 C 0.328125 -3.527344 0.4375 -3.527344 0.546875 -3.558594 C 0.816406 -3.433594 1.113281 -3.371094 1.410156 -3.371094 C 2.054688 -3.355469 2.679688 -3.496094 3.246094 -3.808594 C 3.464844 -3.917969 3.542969 -3.824219 3.511719 -3.761719 C 3.136719 -3.023438 2.460938 -1.675781 3.964844 -0.800781 C 4.5 -0.546875 5.09375 -0.4375 5.691406 -0.484375 C 7.882812 -0.484375 11.332031 -1.425781 13.496094 -3.542969 C 13.574219 -3.605469 13.621094 -3.714844 13.621094 -3.824219 C 13.636719 -3.933594 13.589844 -4.042969 13.511719 -4.121094 Z M 0.453125 -4.984375 C 0.359375 -5.4375 0.515625 -5.910156 0.878906 -6.207031 C 0.769531 -5.785156 0.628906 -5.375 0.453125 -4.96875 Z M 0.453125 -4.984375 "/></g></g></g><g fill="#967f71" fill-opacity="1"><g transform="translate(135.778905, 227.124491)"><g><path d="M 13.699219 -3.902344 C 13.605469 -3.964844 13.511719 -4.011719 13.402344 -4.011719 C 13.292969 -3.996094 13.183594 -3.949219 13.121094 -3.871094 C 13.074219 -3.839844 9.625 -0.15625 6.628906 -1.363281 C 5.988281 -1.707031 5.46875 -2.226562 5.109375 -2.867188 C 4.984375 -3.074219 4.828125 -3.277344 4.640625 -3.464844 C 4.4375 -3.714844 4.121094 -3.855469 3.792969 -3.871094 C 2.992188 -3.933594 2.023438 -3.402344 0.863281 -2.304688 C 0.832031 -2.273438 0.785156 -2.257812 0.738281 -2.289062 C 0.691406 -2.304688 0.660156 -2.367188 0.675781 -2.414062 L 1.019531 -3.949219 C 1.082031 -4.167969 0.941406 -4.40625 0.722656 -4.453125 C 0.5 -4.5 0.28125 -4.359375 0.21875 -4.136719 L -0.5625 -0.707031 C -0.609375 -0.515625 -0.515625 -0.328125 -0.34375 -0.25 C -0.171875 -0.15625 0.03125 -0.203125 0.15625 -0.34375 C 2.257812 -2.804688 3.324219 -3.039062 3.699219 -3.054688 C 4.074219 -3.074219 4.3125 -2.585938 4.4375 -2.398438 C 4.875 -1.628906 5.535156 -1.003906 6.316406 -0.609375 C 9.828125 0.816406 13.558594 -3.152344 13.714844 -3.324219 C 13.871094 -3.480469 13.855469 -3.746094 13.699219 -3.902344 Z M 13.699219 -3.902344 "/></g></g></g><g fill="#967f71" fill-opacity="1"><g transform="translate(148.830376, 227.124491)"><g><path d="M 13.105469 -3.792969 C 12.949219 -3.964844 12.679688 -3.980469 12.507812 -3.824219 C 12.460938 -3.777344 7.804688 0.40625 4.921875 -1.488281 C 3.777344 -2.242188 3.496094 -4.058594 3.496094 -4.074219 C 3.480469 -4.261719 3.339844 -4.40625 3.152344 -4.4375 C 2.976562 -4.453125 2.789062 -4.359375 2.710938 -4.199219 C 1.976562 -2.570312 0.675781 -0.5 0.3125 -0.738281 C 0.28125 -0.738281 0.21875 -0.800781 0.171875 -0.910156 C -0.015625 -1.425781 0.046875 -1.992188 0.3125 -2.476562 C 0.910156 -3.699219 2.007812 -4.578125 3.324219 -4.90625 C 3.464844 -4.9375 3.574219 -5.046875 3.621094 -5.1875 C 3.667969 -5.328125 3.621094 -5.484375 3.527344 -5.597656 C 3.417969 -5.691406 3.277344 -5.738281 3.136719 -5.707031 C 1.566406 -5.328125 0.265625 -4.261719 -0.4375 -2.820312 C -0.816406 -2.117188 -0.863281 -1.269531 -0.5625 -0.53125 C -0.421875 -0.171875 -0.078125 0.078125 0.3125 0.078125 L 0.328125 0.078125 C 1.097656 0.0625 2.054688 -0.894531 2.710938 -1.929688 C 2.789062 -2.054688 2.929688 -2.117188 3.074219 -2.101562 C 3.214844 -2.101562 3.339844 -2.023438 3.402344 -1.898438 C 3.667969 -1.457031 4.027344 -1.082031 4.46875 -0.816406 C 7.882812 1.457031 12.851562 -3.023438 13.074219 -3.214844 C 13.152344 -3.292969 13.199219 -3.402344 13.199219 -3.496094 C 13.214844 -3.605469 13.167969 -3.714844 13.105469 -3.792969 Z M 13.105469 -3.792969 "/></g></g></g><g fill="#967f71" fill-opacity="1"><g transform="translate(161.49015, 227.124491)"><g><path d="M 13.699219 -3.902344 C 13.605469 -3.964844 13.511719 -4.011719 13.402344 -4.011719 C 13.292969 -3.996094 13.183594 -3.949219 13.121094 -3.871094 C 13.074219 -3.839844 9.625 -0.15625 6.628906 -1.363281 C 5.988281 -1.707031 5.46875 -2.226562 5.109375 -2.867188 C 4.984375 -3.074219 4.828125 -3.277344 4.640625 -3.464844 C 4.4375 -3.714844 4.121094 -3.855469 3.792969 -3.871094 C 2.992188 -3.933594 2.023438 -3.402344 0.863281 -2.304688 C 0.832031 -2.273438 0.785156 -2.257812 0.738281 -2.289062 C 0.691406 -2.304688 0.660156 -2.367188 0.675781 -2.414062 L 1.019531 -3.949219 C 1.082031 -4.167969 0.941406 -4.40625 0.722656 -4.453125 C 0.5 -4.5 0.28125 -4.359375 0.21875 -4.136719 L -0.5625 -0.707031 C -0.609375 -0.515625 -0.515625 -0.328125 -0.34375 -0.25 C -0.171875 -0.15625 0.03125 -0.203125 0.15625 -0.34375 C 2.257812 -2.804688 3.324219 -3.039062 3.699219 -3.054688 C 4.074219 -3.074219 4.3125 -2.585938 4.4375 -2.398438 C 4.875 -1.628906 5.535156 -1.003906 6.316406 -0.609375 C 9.828125 0.816406 13.558594 -3.152344 13.714844 -3.324219 C 13.871094 -3.480469 13.855469 -3.746094 13.699219 -3.902344 Z M 13.699219 -3.902344 "/></g></g></g><g fill="#967f71" fill-opacity="1"><g transform="translate(174.541621, 227.124491)"><g><path d="M 14.828125 -3.589844 C 14.75 -3.667969 14.65625 -3.699219 14.546875 -3.714844 C 14.4375 -3.714844 14.328125 -3.667969 14.25 -3.589844 C 11.882812 -1.269531 8.433594 -0.46875 6.992188 -0.925781 C 5.769531 -1.316406 5.203125 -2.429688 4.953125 -3.605469 C 4.90625 -3.871094 4.953125 -4.121094 5.09375 -4.34375 C 6.976562 -7.539062 8.964844 -12.148438 8.277344 -13.261719 C 8.121094 -13.511719 7.835938 -13.636719 7.539062 -13.589844 C 5.800781 -13.371094 4.3125 -9.765625 4.011719 -6.550781 C 3.949219 -5.863281 3.949219 -5.1875 3.996094 -4.515625 C 4.011719 -4.296875 3.964844 -4.074219 3.839844 -3.886719 C 3.746094 -3.730469 3.636719 -3.558594 3.527344 -3.402344 C 2.148438 -1.363281 1.207031 -0.707031 0.816406 -0.753906 C 0.609375 -0.769531 0.4375 -0.910156 0.390625 -1.097656 C 0.234375 -1.898438 0.421875 -2.710938 0.878906 -3.371094 C 1.207031 -3.761719 1.691406 -4.199219 2.164062 -4.105469 C 2.429688 -4.027344 2.648438 -3.824219 2.757812 -3.574219 C 2.804688 -3.355469 3.007812 -3.199219 3.230469 -3.230469 C 3.449219 -3.261719 3.605469 -3.464844 3.574219 -3.699219 C 3.417969 -4.261719 2.992188 -4.703125 2.429688 -4.875 C 1.945312 -5.03125 1.160156 -4.96875 0.25 -3.902344 C -0.25 -3.324219 -0.753906 -1.785156 -0.375 -0.800781 C -0.21875 -0.328125 0.203125 0 0.691406 0.0625 C 0.738281 0.0625 0.800781 0.0625 0.847656 0.0625 C 1.675781 0.0625 2.726562 -0.832031 3.964844 -2.601562 C 4.011719 -2.664062 4.105469 -2.710938 4.199219 -2.695312 C 4.296875 -2.695312 4.375 -2.632812 4.40625 -2.554688 C 4.75 -1.410156 5.628906 -0.515625 6.742188 -0.140625 C 8.589844 0.4375 12.351562 -0.59375 14.828125 -3.007812 C 14.984375 -3.167969 14.984375 -3.417969 14.828125 -3.589844 Z M 4.84375 -6.472656 C 5.09375 -9.34375 6.238281 -11.867188 7.210938 -12.585938 C 7.289062 -12.632812 7.398438 -12.648438 7.492188 -12.585938 C 7.570312 -12.539062 7.617188 -12.445312 7.617188 -12.351562 C 7.476562 -11.160156 6.628906 -9.011719 5.0625 -6.222656 C 4.8125 -5.816406 4.8125 -6.191406 4.84375 -6.472656 Z M 4.84375 -6.472656 "/></g></g></g><g fill="#967f71" fill-opacity="1"><g transform="translate(188.799528, 227.124491)"><g><path d="M 11.425781 -4.453125 C 11.347656 -4.53125 11.253906 -4.5625 11.144531 -4.5625 C 11.035156 -4.5625 10.925781 -4.53125 10.847656 -4.453125 C 8.964844 -2.570312 6.300781 -1.707031 3.683594 -2.148438 C 3.480469 -2.195312 3.339844 -2.382812 3.371094 -2.585938 C 3.496094 -3.339844 3.433594 -4.105469 2.992188 -4.359375 C 2.710938 -4.515625 2.289062 -4.53125 1.785156 -3.683594 C 1.597656 -3.402344 1.535156 -3.054688 1.597656 -2.726562 C 1.675781 -2.398438 1.882812 -2.101562 2.164062 -1.929688 C 2.335938 -1.785156 2.132812 -1.550781 2.023438 -1.441406 C 1.722656 -1.082031 1.207031 -1.019531 0.847656 -1.300781 C 0.390625 -1.503906 0.1875 -2.007812 0.359375 -2.460938 C 0.5625 -3.292969 1.378906 -4.011719 1.675781 -4.011719 C 1.898438 -4.011719 2.085938 -4.199219 2.085938 -4.421875 C 2.101562 -4.640625 1.914062 -4.828125 1.691406 -4.84375 L 1.675781 -4.84375 C 0.894531 -4.84375 -0.15625 -3.777344 -0.4375 -2.664062 C -0.707031 -1.851562 -0.328125 -0.957031 0.453125 -0.578125 C 0.753906 -0.40625 1.082031 -0.328125 1.425781 -0.3125 C 2.101562 -0.34375 2.695312 -0.753906 2.976562 -1.378906 C 3.007812 -1.425781 3.089844 -1.457031 3.152344 -1.441406 C 5.140625 -0.847656 8.777344 -1.222656 11.425781 -3.855469 C 11.503906 -3.933594 11.550781 -4.042969 11.550781 -4.152344 C 11.550781 -4.261719 11.503906 -4.375 11.425781 -4.453125 Z M 2.554688 -2.664062 C 2.382812 -2.820312 2.351562 -3.074219 2.492188 -3.261719 C 2.539062 -3.339844 2.570312 -3.386719 2.601562 -3.433594 C 2.617188 -3.183594 2.601562 -2.914062 2.554688 -2.664062 Z M 2.554688 -2.664062 "/></g></g></g><g fill="#967f71" fill-opacity="1"><g transform="translate(199.626141, 227.124491)"><g/></g></g><g fill="#967f71" fill-opacity="1"><g transform="translate(205.454651, 227.124491)"><g><path d="M 21.097656 -14.828125 C 21.050781 -14.921875 20.957031 -14.984375 20.847656 -15.015625 C 20.738281 -15.03125 20.628906 -15.015625 20.535156 -14.96875 C 18.230469 -13.574219 15.503906 -14.59375 12.351562 -15.769531 C 8.714844 -17.148438 4.59375 -18.683594 -0.0625 -16.976562 C -3.183594 -15.832031 -3.792969 -13.480469 -3.308594 -11.664062 C -2.867188 -9.96875 -1.550781 -8.777344 -0.203125 -8.777344 C -0.09375 -8.777344 0.03125 -8.792969 0.140625 -8.808594 C 0.296875 -8.824219 0.421875 -8.917969 0.46875 -9.058594 C 0.53125 -9.203125 0.5 -9.359375 0.40625 -9.484375 C 0.3125 -9.59375 0.15625 -9.640625 0.015625 -9.609375 C -1.003906 -9.453125 -2.148438 -10.457031 -2.507812 -11.867188 C -2.695312 -12.570312 -3.054688 -15 0.21875 -16.207031 C 2.460938 -17.007812 4.875 -17.132812 7.164062 -16.570312 C 7.335938 -16.539062 7.476562 -16.425781 7.570312 -16.285156 C 7.648438 -16.144531 7.679688 -15.972656 7.632812 -15.816406 C 6.960938 -13.261719 4.890625 -5.675781 3.039062 -1.019531 C 2.960938 -0.800781 3.054688 -0.5625 3.277344 -0.484375 C 3.480469 -0.40625 3.714844 -0.5 3.808594 -0.722656 C 5.675781 -5.40625 7.742188 -13.011719 8.433594 -15.597656 C 8.464844 -15.753906 8.574219 -15.894531 8.714844 -15.972656 C 8.871094 -16.050781 9.042969 -16.066406 9.203125 -16.019531 C 10.1875 -15.707031 11.128906 -15.363281 12.054688 -15 C 15.265625 -13.808594 18.308594 -12.664062 20.957031 -14.265625 C 21.160156 -14.375 21.222656 -14.625 21.097656 -14.828125 Z M 21.097656 -14.828125 "/></g></g></g><g fill="#967f71" fill-opacity="1"><g transform="translate(213.037975, 227.124491)"><g><path d="M 13.105469 -3.792969 C 12.949219 -3.964844 12.679688 -3.980469 12.507812 -3.824219 C 12.460938 -3.777344 7.804688 0.40625 4.921875 -1.488281 C 3.777344 -2.242188 3.496094 -4.058594 3.496094 -4.074219 C 3.480469 -4.261719 3.339844 -4.40625 3.152344 -4.4375 C 2.976562 -4.453125 2.789062 -4.359375 2.710938 -4.199219 C 1.976562 -2.570312 0.675781 -0.5 0.3125 -0.738281 C 0.28125 -0.738281 0.21875 -0.800781 0.171875 -0.910156 C -0.015625 -1.425781 0.046875 -1.992188 0.3125 -2.476562 C 0.910156 -3.699219 2.007812 -4.578125 3.324219 -4.90625 C 3.464844 -4.9375 3.574219 -5.046875 3.621094 -5.1875 C 3.667969 -5.328125 3.621094 -5.484375 3.527344 -5.597656 C 3.417969 -5.691406 3.277344 -5.738281 3.136719 -5.707031 C 1.566406 -5.328125 0.265625 -4.261719 -0.4375 -2.820312 C -0.816406 -2.117188 -0.863281 -1.269531 -0.5625 -0.53125 C -0.421875 -0.171875 -0.078125 0.078125 0.3125 0.078125 L 0.328125 0.078125 C 1.097656 0.0625 2.054688 -0.894531 2.710938 -1.929688 C 2.789062 -2.054688 2.929688 -2.117188 3.074219 -2.101562 C 3.214844 -2.101562 3.339844 -2.023438 3.402344 -1.898438 C 3.667969 -1.457031 4.027344 -1.082031 4.46875 -0.816406 C 7.882812 1.457031 12.851562 -3.023438 13.074219 -3.214844 C 13.152344 -3.292969 13.199219 -3.402344 13.199219 -3.496094 C 13.214844 -3.605469 13.167969 -3.714844 13.105469 -3.792969 Z M 13.105469 -3.792969 "/></g></g></g><g fill="#967f71" fill-opacity="1"><g transform="translate(225.697749, 227.124491)"><g><path d="M 17.195312 -3.980469 C 17.023438 -4.121094 16.757812 -4.089844 16.617188 -3.917969 C 16.585938 -3.871094 13.089844 0.390625 9.875 -1.472656 C 9.453125 -1.769531 9.121094 -2.179688 8.949219 -2.648438 C 8.652344 -3.246094 8.292969 -3.964844 7.289062 -3.808594 C 6.773438 -3.730469 5.972656 -3.074219 5.296875 -2.320312 C 5.265625 -2.273438 5.203125 -2.257812 5.15625 -2.273438 C 5.109375 -2.289062 5.0625 -2.320312 5.0625 -2.382812 C 4.9375 -3.089844 4.46875 -3.683594 3.808594 -3.964844 C 3.277344 -4.105469 2.414062 -4.261719 0.609375 -2.476562 C 0.515625 -2.398438 0.390625 -2.429688 0.40625 -2.554688 C 0.40625 -2.617188 0.722656 -3.886719 0.722656 -3.886719 C 0.769531 -4.105469 0.628906 -4.328125 0.40625 -4.390625 C 0.1875 -4.4375 -0.03125 -4.296875 -0.09375 -4.074219 L -0.847656 -0.769531 C -0.894531 -0.578125 -0.800781 -0.390625 -0.628906 -0.296875 C -0.4375 -0.21875 -0.234375 -0.265625 -0.125 -0.421875 C 1.976562 -3.054688 3.007812 -3.308594 3.433594 -3.246094 C 3.855469 -3.167969 4.421875 -2.320312 4.359375 -0.957031 C 4.359375 -0.769531 4.46875 -0.59375 4.65625 -0.546875 C 4.84375 -0.484375 5.03125 -0.5625 5.125 -0.722656 C 5.769531 -1.816406 7.023438 -2.929688 7.414062 -2.992188 C 7.789062 -3.054688 7.898438 -2.914062 8.214844 -2.289062 C 8.449219 -1.660156 8.886719 -1.128906 9.453125 -0.769531 C 10.109375 -0.375 10.863281 -0.15625 11.628906 -0.15625 C 14.625 -0.15625 17.132812 -3.230469 17.257812 -3.402344 C 17.398438 -3.574219 17.367188 -3.839844 17.195312 -3.980469 Z M 17.195312 -3.980469 "/></g></g></g><g fill="#967f71" fill-opacity="1"><g transform="translate(242.196192, 227.124491)"><g><path d="M 13.105469 -3.792969 C 12.949219 -3.964844 12.679688 -3.980469 12.507812 -3.824219 C 12.460938 -3.777344 7.804688 0.40625 4.921875 -1.488281 C 3.777344 -2.242188 3.496094 -4.058594 3.496094 -4.074219 C 3.480469 -4.261719 3.339844 -4.40625 3.152344 -4.4375 C 2.976562 -4.453125 2.789062 -4.359375 2.710938 -4.199219 C 1.976562 -2.570312 0.675781 -0.5 0.3125 -0.738281 C 0.28125 -0.738281 0.21875 -0.800781 0.171875 -0.910156 C -0.015625 -1.425781 0.046875 -1.992188 0.3125 -2.476562 C 0.910156 -3.699219 2.007812 -4.578125 3.324219 -4.90625 C 3.464844 -4.9375 3.574219 -5.046875 3.621094 -5.1875 C 3.667969 -5.328125 3.621094 -5.484375 3.527344 -5.597656 C 3.417969 -5.691406 3.277344 -5.738281 3.136719 -5.707031 C 1.566406 -5.328125 0.265625 -4.261719 -0.4375 -2.820312 C -0.816406 -2.117188 -0.863281 -1.269531 -0.5625 -0.53125 C -0.421875 -0.171875 -0.078125 0.078125 0.3125 0.078125 L 0.328125 0.078125 C 1.097656 0.0625 2.054688 -0.894531 2.710938 -1.929688 C 2.789062 -2.054688 2.929688 -2.117188 3.074219 -2.101562 C 3.214844 -2.101562 3.339844 -2.023438 3.402344 -1.898438 C 3.667969 -1.457031 4.027344 -1.082031 4.46875 -0.816406 C 7.882812 1.457031 12.851562 -3.023438 13.074219 -3.214844 C 13.152344 -3.292969 13.199219 -3.402344 13.199219 -3.496094 C 13.214844 -3.605469 13.167969 -3.714844 13.105469 -3.792969 Z M 13.105469 -3.792969 "/></g></g></g><g fill="#967f71" fill-opacity="1"><g transform="translate(254.855966, 227.124491)"><g><path d="M 12.398438 -4.3125 C 12.226562 -4.46875 11.976562 -4.46875 11.820312 -4.3125 C 11.726562 -4.214844 9.671875 -2.179688 6.898438 -4.214844 C 6.742188 -4.328125 6.535156 -4.328125 6.378906 -4.183594 C 6.128906 -3.964844 5.863281 -3.699219 5.582031 -3.417969 C 5.46875 -3.292969 5.28125 -3.246094 5.125 -3.308594 C 4.96875 -3.371094 4.859375 -3.511719 4.84375 -3.683594 C 4.84375 -4.011719 4.796875 -4.34375 4.6875 -4.65625 C 4.625 -4.828125 4.453125 -4.9375 4.261719 -4.90625 C 4.074219 -4.890625 3.933594 -4.75 3.902344 -4.578125 C 3.902344 -4.546875 3.402344 -1.769531 1.269531 -1.207031 C 1.082031 -1.144531 0.878906 -1.191406 0.738281 -1.332031 C 0.609375 -1.472656 0.25 -2.101562 1.066406 -4.089844 C 1.144531 -4.3125 1.050781 -4.546875 0.832031 -4.625 C 0.628906 -4.71875 0.375 -4.609375 0.296875 -4.40625 C -0.578125 -2.242188 -0.28125 -1.238281 0.109375 -0.785156 C 0.453125 -0.40625 0.988281 -0.265625 1.472656 -0.421875 C 2.570312 -0.722656 3.480469 -1.472656 3.996094 -2.476562 C 3.980469 -2.179688 3.933594 -1.882812 3.886719 -1.566406 C 3.871094 -1.503906 3.839844 -1.425781 3.792969 -1.363281 C 1.960938 0.941406 0.296875 3.761719 0.265625 5.535156 C 0.21875 6.003906 0.390625 6.472656 0.722656 6.835938 C 0.863281 6.976562 1.050781 7.070312 1.253906 7.070312 C 1.425781 7.054688 1.597656 7.007812 1.738281 6.914062 C 2.773438 6.222656 4.089844 2.210938 4.609375 -0.988281 C 4.625 -1.066406 4.65625 -1.128906 4.703125 -1.191406 C 5.1875 -1.785156 5.691406 -2.351562 6.191406 -2.851562 C 6.472656 -3.152344 6.898438 -3.214844 7.257812 -3.023438 C 8.949219 -2.132812 11.019531 -2.414062 12.398438 -3.730469 C 12.476562 -3.808594 12.523438 -3.917969 12.523438 -4.027344 C 12.523438 -4.136719 12.476562 -4.230469 12.398438 -4.3125 Z M 3.449219 0.722656 C 3.105469 2.289062 2.601562 3.792969 1.945312 5.25 C 1.582031 5.972656 1.425781 6.253906 1.269531 6.222656 C 1.128906 6.207031 1.082031 5.863281 1.097656 5.550781 C 1.113281 4.40625 2.054688 2.523438 3.308594 0.691406 C 3.386719 0.578125 3.480469 0.609375 3.449219 0.722656 Z M 3.449219 0.722656 "/></g></g></g><g fill="#967f71" fill-opacity="1"><g transform="translate(266.497319, 227.124491)"><g><path d="M 11.425781 -4.453125 C 11.347656 -4.53125 11.253906 -4.5625 11.144531 -4.5625 C 11.035156 -4.5625 10.925781 -4.53125 10.847656 -4.453125 C 8.964844 -2.570312 6.300781 -1.707031 3.683594 -2.148438 C 3.480469 -2.195312 3.339844 -2.382812 3.371094 -2.585938 C 3.496094 -3.339844 3.433594 -4.105469 2.992188 -4.359375 C 2.710938 -4.515625 2.289062 -4.53125 1.785156 -3.683594 C 1.597656 -3.402344 1.535156 -3.054688 1.597656 -2.726562 C 1.675781 -2.398438 1.882812 -2.101562 2.164062 -1.929688 C 2.335938 -1.785156 2.132812 -1.550781 2.023438 -1.441406 C 1.722656 -1.082031 1.207031 -1.019531 0.847656 -1.300781 C 0.390625 -1.503906 0.1875 -2.007812 0.359375 -2.460938 C 0.5625 -3.292969 1.378906 -4.011719 1.675781 -4.011719 C 1.898438 -4.011719 2.085938 -4.199219 2.085938 -4.421875 C 2.101562 -4.640625 1.914062 -4.828125 1.691406 -4.84375 L 1.675781 -4.84375 C 0.894531 -4.84375 -0.15625 -3.777344 -0.4375 -2.664062 C -0.707031 -1.851562 -0.328125 -0.957031 0.453125 -0.578125 C 0.753906 -0.40625 1.082031 -0.328125 1.425781 -0.3125 C 2.101562 -0.34375 2.695312 -0.753906 2.976562 -1.378906 C 3.007812 -1.425781 3.089844 -1.457031 3.152344 -1.441406 C 5.140625 -0.847656 8.777344 -1.222656 11.425781 -3.855469 C 11.503906 -3.933594 11.550781 -4.042969 11.550781 -4.152344 C 11.550781 -4.261719 11.503906 -4.375 11.425781 -4.453125 Z M 2.554688 -2.664062 C 2.382812 -2.820312 2.351562 -3.074219 2.492188 -3.261719 C 2.539062 -3.339844 2.570312 -3.386719 2.601562 -3.433594 C 2.617188 -3.183594 2.601562 -2.914062 2.554688 -2.664062 Z M 2.554688 -2.664062 "/></g></g></g></svg>